<svg width="24" height="24" viewBox="0 0 24 24" fill="none" xmlns="http://www.w3.org/2000/svg">
<path fill-rule="evenodd" clip-rule="evenodd" d="M17 0.25C20.7279 0.25 23.75 3.27208 23.75 7V17C23.75 20.7279 20.7279 23.75 17 23.75H7C3.27208 23.75 0.25 20.7279 0.25 17V7C0.25 3.27208 3.27208 0.25 7 0.25H17ZM17 1.75H7C4.10051 1.75 1.75 4.10051 1.75 7V17C1.75 19.8995 4.10051 22.25 7 22.25H17C19.8995 22.25 22.25 19.8995 22.25 17V7C22.25 4.10051 19.8995 1.75 17 1.75ZM12 5.25C12.3797 5.25 12.6935 5.53215 12.7432 5.89823L12.75 6V11.25H18C18.3797 11.25 18.6935 11.5322 18.7432 11.8982L18.75 12C18.75 12.3797 18.4678 12.6935 18.1018 12.7432L18 12.75H12.75V18C12.75 18.3797 12.4678 18.6935 12.1018 18.7432L12 18.75C11.6203 18.75 11.3065 18.4678 11.2568 18.1018L11.25 18V12.749L6 12.75C5.6203 12.75 5.30651 12.4678 5.25685 12.1018L5.25 12C5.25 11.6203 5.53215 11.3065 5.89823 11.2568L6 11.25L11.25 11.249V6C11.25 5.65482 11.4832 5.36411 11.8006 5.27679L11.8982 5.25685L12 5.25Z" fill="#262626"/>
<path d="M12.7432 5.89823L12.9926 5.88145L12.992 5.87301L12.9909 5.86462L12.7432 5.89823ZM12 5.25V5H11.9916L11.9832 5.00056L12 5.25ZM12.75 6H13V5.9916L12.9994 5.98322L12.75 6ZM12.75 11.25H12.5V11.5H12.75V11.25ZM18.7432 11.8982L18.9926 11.8814L18.992 11.873L18.9909 11.8646L18.7432 11.8982ZM18.75 12H19V11.9916L18.9994 11.9832L18.75 12ZM18.1018 12.7432L18.1186 12.9926L18.127 12.992L18.1354 12.9909L18.1018 12.7432ZM18 12.75V13H18.0084L18.0168 12.9994L18 12.75ZM12.75 12.75V12.5H12.5V12.75H12.75ZM12.1018 18.7432L12.1186 18.9926L12.127 18.992L12.1354 18.9909L12.1018 18.7432ZM12 18.75V19H12.0084L12.0168 18.9994L12 18.75ZM11.2568 18.1018L11.0074 18.1186L11.008 18.127L11.0091 18.1354L11.2568 18.1018ZM11.25 18H11V18.0084L11.0006 18.0168L11.25 18ZM11.25 12.749H11.5V12.499L11.25 12.499L11.25 12.749ZM6 12.75L6 13L6.00005 13L6 12.75ZM5.25685 12.1018L5.00741 12.1186L5.00798 12.127L5.00912 12.1354L5.25685 12.1018ZM5.25 12H5V12.0084L5.00056 12.0168L5.25 12ZM5.89823 11.2568L5.88145 11.0074L5.87301 11.008L5.86462 11.0091L5.89823 11.2568ZM6 11.25L5.99995 11L5.99158 11L5.98322 11.0006L6 11.25ZM11.25 11.249L11.25 11.499L11.5 11.499V11.249H11.25ZM11.8006 5.27679L11.7506 5.03185L11.7424 5.03353L11.7343 5.03574L11.8006 5.27679ZM11.8982 5.25685L11.8814 5.00741L11.8647 5.00854L11.8482 5.01191L11.8982 5.25685ZM24 7C24 3.13401 20.866 0 17 0V0.5C20.5899 0.5 23.5 3.41015 23.5 7H24ZM24 17V7H23.5V17H24ZM17 24C20.866 24 24 20.866 24 17H23.5C23.5 20.5899 20.5899 23.5 17 23.5V24ZM7 24H17V23.5H7V24ZM0 17C0 20.866 3.13401 24 7 24V23.5C3.41015 23.5 0.5 20.5899 0.5 17H0ZM0 7V17H0.5V7H0ZM7 0C3.13401 0 0 3.13401 0 7H0.5C0.5 3.41015 3.41015 0.5 7 0.5V0ZM17 0H7V0.5H17V0ZM7 2H17V1.5H7V2ZM2 7C2 4.23858 4.23858 2 7 2V1.5C3.96243 1.5 1.5 3.96243 1.5 7H2ZM2 17V7H1.5V17H2ZM7 22C4.23858 22 2 19.7614 2 17H1.5C1.5 20.0376 3.96243 22.5 7 22.5V22ZM17 22H7V22.5H17V22ZM22 17C22 19.7614 19.7614 22 17 22V22.5C20.0376 22.5 22.5 20.0376 22.5 17H22ZM22 7V17H22.5V7H22ZM17 2C19.7614 2 22 4.23858 22 7H22.5C22.5 3.96243 20.0376 1.5 17 1.5V2ZM12.9909 5.86462C12.9246 5.37628 12.5065 5 12 5V5.5C12.2529 5.5 12.4623 5.68803 12.4954 5.93184L12.9909 5.86462ZM12.9994 5.98322L12.9926 5.88145L12.4937 5.91501L12.5006 6.01678L12.9994 5.98322ZM13 11.25V6H12.5V11.25H13ZM18 11H12.75V11.5H18V11ZM18.9909 11.8646C18.9246 11.3763 18.5065 11 18 11V11.5C18.2529 11.5 18.4623 11.688 18.4954 11.9318L18.9909 11.8646ZM18.9994 11.9832L18.9926 11.8814L18.4937 11.915L18.5006 12.0168L18.9994 11.9832ZM18.1354 12.9909C18.6237 12.9246 19 12.5065 19 12H18.5C18.5 12.2529 18.312 12.4623 18.0682 12.4954L18.1354 12.9909ZM18.0168 12.9994L18.1186 12.9926L18.085 12.4937L17.9832 12.5006L18.0168 12.9994ZM12.75 13H18V12.5H12.75V13ZM13 18V12.75H12.5V18H13ZM12.1354 18.9909C12.6237 18.9246 13 18.5065 13 18H12.5C12.5 18.2529 12.312 18.4623 12.0682 18.4954L12.1354 18.9909ZM12.0168 18.9994L12.1186 18.9926L12.085 18.4937L11.9832 18.5006L12.0168 18.9994ZM11.0091 18.1354C11.0754 18.6237 11.4935 19 12 19V18.5C11.7471 18.5 11.5377 18.312 11.5046 18.0682L11.0091 18.1354ZM11.0006 18.0168L11.0074 18.1186L11.5063 18.085L11.4994 17.9832L11.0006 18.0168ZM11 12.749V18H11.5V12.749H11ZM6.00005 13L11.25 12.999L11.25 12.499L5.99995 12.5L6.00005 13ZM5.00912 12.1354C5.07537 12.6237 5.49353 13 6 13V12.5C5.74707 12.5 5.53765 12.312 5.50458 12.0682L5.00912 12.1354ZM5.00056 12.0168L5.00741 12.1186L5.50628 12.085L5.49944 11.9832L5.00056 12.0168ZM5.86462 11.0091C5.37628 11.0754 5 11.4935 5 12H5.5C5.5 11.7471 5.68803 11.5377 5.93184 11.5046L5.86462 11.0091ZM5.98322 11.0006L5.88145 11.0074L5.91501 11.5063L6.01678 11.4994L5.98322 11.0006ZM11.25 10.999L5.99995 11L6.00005 11.5L11.25 11.499L11.25 10.999ZM11 6V11.249H11.5V6H11ZM11.7343 5.03574C11.3112 5.15214 11 5.53941 11 6H11.5C11.5 5.77024 11.6552 5.57608 11.8669 5.51784L11.7343 5.03574ZM11.8482 5.01191L11.7506 5.03185L11.8507 5.52173L11.9483 5.50179L11.8482 5.01191ZM11.9832 5.00056L11.8814 5.00741L11.915 5.50628L12.0168 5.49944L11.9832 5.00056Z" fill="#262626"/>
</svg>
